<svg width="1404" height="1633" viewBox="0 0 1404 1633" fill="none" xmlns="http://www.w3.org/2000/svg">
<path d="M1041.13 1250.85C1041.62 1255.88 1041.87 1260.98 1041.87 1266.14V1632.12H725.84V1626H731.956V1626H1035.75V1266.14C1035.75 1260.98 1035.49 1255.88 1034.99 1250.85H1041.13Z" fill="#790606"/>
<path d="M315.292 169.227C315.775 174.231 316.025 179.305 316.025 184.436V548.457H0V542.374H64.2246V542.341H309.909V184.436C309.909 179.302 309.65 174.228 309.147 169.227H315.292Z" fill="#790606"/>
<path d="M504.112 541.322C589.766 541.322 672.759 608.594 675.801 698.315H669.677C666.629 612.544 587.035 547.501 504.231 547.438C410.107 550.743 345.86 617.659 339.052 698.315H338.453V1078.57H332.337V712.588C332.337 622.368 401.149 544.89 504.112 541.322Z" fill="#790606"/>
<mask id="path-4-inside-1_0_1" fill="white">
<path d="M1232.5 0C1327.09 0 1403.77 74.3223 1403.77 166.004V550.495H1061.24V166.004C1061.24 74.3223 1137.91 2.39861e-05 1232.5 0Z"/>
</mask>
<path d="M1232.5 0V-6.56883V0ZM1403.77 166.004H1410.34V166.004L1403.77 166.004ZM1403.77 550.495V557.064H1410.34V550.495H1403.77ZM1061.24 550.495H1054.67V557.064H1061.24V550.495ZM1061.24 166.004L1054.67 166.004V166.004H1061.24ZM1232.5 0V6.56883C1323.65 6.56883 1397.2 78.1418 1397.2 166.004L1403.77 166.004L1410.34 166.004C1410.33 70.5028 1330.52 -6.56883 1232.5 -6.56883V0ZM1403.77 166.004H1397.2V550.495H1403.77H1410.34V166.004H1403.77ZM1403.77 550.495V543.926H1061.24V550.495V557.064H1403.77V550.495ZM1061.24 550.495H1067.8V166.004H1061.24H1054.67V550.495H1061.24ZM1061.24 166.004L1067.8 166.004C1067.8 78.1419 1141.35 6.56886 1232.5 6.56883V0V-6.56883C1134.48 -6.56881 1054.67 70.5028 1054.67 166.004L1061.24 166.004Z" fill="#790606" mask="url(#path-4-inside-1_0_1)"/>
</svg>
