<svg width="1412" height="948" viewBox="0 0 1412 948" fill="none" xmlns="http://www.w3.org/2000/svg">
<path d="M533 948H420V875.5H533V948ZM891.5 948H788V875.5H891.5V948ZM426 942H527V881.5H426V942ZM794 942H885.5V881.5H794V942ZM1288.4 755.702L1411.9 920.702L1407.1 924.298L1284.5 760.5H1142V754.5H1287.5L1288.4 755.702ZM194.5 780.5H188.5V622H122V780.5H116V616H194.5V780.5ZM486 531H480V379H407V531H401V373H486V531ZM66 140.5V289.5H123V295.5H60V152.658L50.1553 171.396L49.3125 173H16.6875L15.8447 171.396L6 152.658V292.5H0V140.5L5.65527 139.104L20.3125 167H45.6875L60.3447 139.104L66 140.5ZM520.371 295.5H514.371V6H452V120.5H446V0H520.371V295.5ZM802.401 232.5H752.5V295.5H746.5V226.5H796.401V70.5H752.145V64.5H802.401V232.5ZM1006.16 234H1000.16V62H1006.16V234Z" fill="#790606"/>
</svg>
